<?xml version="1.0" encoding="iso-8859-1"?>
<!-- Generator: Adobe Illustrator 23.0.1, SVG Export Plug-In . SVG Version: 6.00 Build 0)  -->
<svg version="1.1" xmlns="http://www.w3.org/2000/svg" xmlns:xlink="http://www.w3.org/1999/xlink" x="0px" y="0px" width="640" height="480"
	 viewBox="0 0 640 480" style="enable-background:new 0 0 640 480;" xml:space="preserve">
<g id="&#x30EC;&#x30A4;&#x30E4;&#x30FC;_1" style="display:none;">
	<g style="display:inline;">
		<path d="M8.754,130.241C21.565,63.546,80.228,13.157,150.661,13.157c70.492,0,129.196,50.475,141.939,117.255L8.754,130.241z"/>
		<path d="M178.011,184.633l114.585,0.292c-11.06,57.928-56.705,103.585-114.627,114.664L178.011,184.633z"/>
		<path d="M123.734,466.843C57.039,454.032,6.65,395.369,6.65,324.937c0-70.492,50.475-129.196,117.255-141.939L123.734,466.843z"/>
		<path d="M352.645,13.157C419.34,25.968,469.73,84.631,469.73,155.063c0,70.492-50.475,129.196-117.255,141.939L352.645,13.157z"/>
		<path d="M633.35,184.839l-0.292,114.585c-57.928-11.06-103.585-56.705-114.664-114.627L633.35,184.839z"/>
		<path d="M633.144,128.113l-114.585-0.292c11.06-57.928,56.705-103.585,114.627-114.664L633.144,128.113z"/>
		<path d="M461.815,349.759c-12.811,66.695-71.474,117.084-141.906,117.084c-70.492,0-129.196-50.475-141.939-117.255
			L461.815,349.759z"/>
		<path d="M518.394,466.801l0.292-114.585c57.928,11.06,103.585,56.705,114.664,114.627L518.394,466.801z"/>
	</g>
</g>
<g id="&#x30EC;&#x30A4;&#x30E4;&#x30FC;_2" style="display:none;">
	<path style="display:inline;" d="M471.429,48.684c90.527,17.388,158.921,97.013,158.921,192.612
		c0,95.681-68.511,175.36-159.153,192.657L471.429,48.684z"/>
	<path style="display:inline;" d="M241.85,278.14l155.529,0.396c-15.013,78.627-76.967,140.599-155.586,155.636L241.85,278.14z"/>
	<path style="display:inline;" d="M14.553,204.749c17.388-90.527,97.013-158.921,192.612-158.921
		c95.681,0,175.36,68.511,192.657,159.153L14.553,204.749z"/>
	<path style="display:inline;" d="M170.584,278.42l-0.396,155.529C91.561,418.937,29.59,356.982,14.553,278.363L170.584,278.42z"/>
</g>
<g id="&#x30EC;&#x30A4;&#x30E4;&#x30FC;_3">
	<rect style="fill:#FFFFFF;" width="640" height="480"/>
	<g>
		<polygon points="346.144,185.935 246.391,13.157 85.661,291.55 290.952,291.55 229.975,185.935 		"/>
		<polygon points="333.28,291.55 407.121,291.55 369.68,226.7 295.839,226.7 		"/>
		<polygon points="554.339,185.935 346.144,185.935 369.68,226.7 488.476,226.7 392.157,393.528 333.28,291.55 290.952,291.55 
			392.157,466.843 		"/>
	</g>
</g>
</svg>
