<?xml version="1.0" encoding="iso-8859-1"?>
<!-- Generator: Adobe Illustrator 23.0.1, SVG Export Plug-In . SVG Version: 6.00 Build 0)  -->
<svg version="1.1" xmlns="http://www.w3.org/2000/svg" xmlns:xlink="http://www.w3.org/1999/xlink" x="0px" y="0px"
	 viewBox="0 0 640 480" style="enable-background:new 0 0 640 480;" xml:space="preserve">
<g id="&#x30EC;&#x30A4;&#x30E4;&#x30FC;_1" style="display:none;">
	<g style="display:inline;">
		<path d="M8.754,130.241C21.565,63.546,80.228,13.157,150.661,13.157c70.492,0,129.196,50.475,141.939,117.255L8.754,130.241z"/>
		<path d="M178.011,184.633l114.585,0.292c-11.06,57.928-56.705,103.585-114.627,114.664L178.011,184.633z"/>
		<path d="M123.734,466.843C57.039,454.032,6.65,395.369,6.65,324.937c0-70.492,50.475-129.196,117.255-141.939L123.734,466.843z"/>
		<path d="M352.645,13.157C419.34,25.968,469.73,84.631,469.73,155.063c0,70.492-50.475,129.196-117.255,141.939L352.645,13.157z"/>
		<path d="M633.35,184.839l-0.292,114.585c-57.928-11.06-103.585-56.705-114.664-114.627L633.35,184.839z"/>
		<path d="M633.144,128.113l-114.585-0.292c11.06-57.928,56.705-103.585,114.627-114.664L633.144,128.113z"/>
		<path d="M461.815,349.759c-12.811,66.695-71.474,117.084-141.906,117.084c-70.492,0-129.196-50.475-141.939-117.255
			L461.815,349.759z"/>
		<path d="M518.394,466.801l0.292-114.585c57.928,11.06,103.585,56.705,114.664,114.627L518.394,466.801z"/>
	</g>
</g>
<g id="&#x30EC;&#x30A4;&#x30E4;&#x30FC;_2" style="display:none;">
	<path style="display:inline;" d="M471.429,48.684c90.527,17.388,158.921,97.013,158.921,192.612
		c0,95.681-68.511,175.36-159.153,192.657L471.429,48.684z"/>
	<path style="display:inline;" d="M241.85,278.14l155.529,0.396c-15.013,78.627-76.967,140.599-155.586,155.636L241.85,278.14z"/>
	<path style="display:inline;" d="M14.553,204.749c17.388-90.527,97.013-158.921,192.612-158.921
		c95.681,0,175.36,68.511,192.657,159.153L14.553,204.749z"/>
	<path style="display:inline;" d="M170.584,278.42l-0.396,155.529C91.561,418.937,29.59,356.982,14.553,278.363L170.584,278.42z"/>
</g>
<g id="&#x30EC;&#x30A4;&#x30E4;&#x30FC;_3">
	<polygon points="346.144,185.935 246.391,13.157 85.661,291.55 290.952,291.55 229.975,185.935 	"/>
	<polygon points="333.28,291.55 407.121,291.55 369.68,226.7 295.839,226.7 	"/>
	<polygon points="554.339,185.935 346.144,185.935 369.68,226.7 488.476,226.7 392.157,393.528 333.28,291.55 290.952,291.55 
		392.157,466.843 	"/>
</g>
<g id="&#x30EC;&#x30A4;&#x30E4;&#x30FC;_4" style="display:none;">
	<circle style="display:inline;" cx="176.252" cy="243.927" r="111.922"/>
	<rect x="164.105" style="display:inline;" width="30.032" height="142.243"/>
	<polygon style="display:inline;" points="313.01,417.369 451.641,181.418 586.666,419.451 	"/>
	<rect x="437.245" style="display:inline;" width="26.703" height="221.572"/>
	<circle style="display:inline;fill:#FFFFFF;" cx="176.252" cy="243.927" r="78.889"/>
	<polygon style="display:inline;fill:#FFFFFF;" points="363.626,389.32 451.358,240 536.807,390.637 	"/>
</g>
<g id="&#x30EC;&#x30A4;&#x30E4;&#x30FC;_5" style="display:none;">
	<g style="display:inline;">
		<path d="M607.51,95.079c-12.049-20.7-27.044-46.461-58.39-46.477c-0.012,0-0.018,0-0.029,0c-31.324,0-46.346,25.738-58.411,46.417
			c-11.407,19.552-19.08,31.536-32.501,31.536c-0.004,0-0.009,0-0.012,0c-13.428-0.007-21.091-12-32.481-31.569
			c-12.049-20.7-27.045-46.461-58.394-46.477c-0.012,0-0.018,0-0.029,0c-31.323,0-46.344,25.738-58.41,46.417
			c-11.408,19.552-19.08,31.536-32.5,31.536c-0.003,0-0.009,0-0.012,0c-13.428-0.007-21.091-12-32.482-31.569
			c-12.049-20.7-27.045-46.46-58.394-46.477c-0.012,0-0.018,0-0.03,0c-31.325,0-46.345,25.737-58.411,46.417
			c-11.408,19.552-19.081,31.536-32.502,31.536c-0.003,0-0.008,0-0.012,0c-13.427-0.007-21.09-12-32.481-31.569
			C49.98,74.102,34.984,48.34,3.636,48.324c-0.011,0-0.017,0-0.029,0c-1.23,0-2.426,0.053-3.607,0.131v30.178
			c1.158-0.205,2.359-0.309,3.609-0.309c0.003,0,0.008,0,0.011,0c13.428,0.007,21.091,12.001,32.482,31.569
			c12.049,20.7,27.045,46.461,58.394,46.477c0.011,0,0.017,0,0.029,0c31.325-0.003,46.345-25.738,58.411-46.417
			c11.408-19.552,19.081-31.536,32.502-31.536c0.003,0,0.009,0,0.012,0c13.428,0.007,21.091,12,32.482,31.569
			c12.049,20.699,27.045,46.461,58.394,46.477c0.012,0,0.018,0,0.03,0c31.324-0.003,46.344-25.738,58.41-46.417
			c11.407-19.552,19.08-31.536,32.5-31.536c0.003,0,0.008,0,0.011,0c13.428,0.007,21.091,12.001,32.482,31.569
			c12.049,20.7,27.045,46.461,58.393,46.477c0.012,0,0.019,0,0.029,0c31.325-0.002,46.346-25.737,58.411-46.417
			c11.408-19.552,19.08-31.536,32.502-31.536c0.003,0,0.008,0,0.011,0c13.425,0.007,21.088,12,32.478,31.569
			c12.049,20.7,27.044,46.461,58.391,46.478l0.016-30C626.562,126.641,618.9,114.648,607.51,95.079z"/>
		<path d="M618.303,88.77c-6.988-12.002-14.3-24.245-24.366-33.967c-11.802-11.398-26.803-18.217-43.288-18.68
			c-16.273-0.457-31.329,5.597-43.567,16.097c-10.644,9.131-18.354,21.427-25.393,33.406c-4.181,7.115-8.146,14.509-13.147,21.097
			c0.449-0.592-1.587,1.899-2.197,2.557c-1.065,1.149-2.186,2.264-3.398,3.259c1.754-1.44-0.889,0.387-1.481,0.794
			c-1.49,1.025,1.853-0.541,0.151,0.016c-0.825,0.27-1.654,0.48-2.487,0.715c2.511-0.706-0.065-0.008-0.962-0.009
			c-0.725,0-1.468-0.029-2.186-0.111c0.771,0.089,2.068,0.645,0.223-0.127c-0.629-0.263-1.326-0.39-1.962-0.646
			c0.197,0.079,1.819,0.887,0.636,0.156c-0.6-0.371-1.211-0.734-1.813-1.104c-1.056-0.647,1.05,1.149-0.528-0.44
			c-5.237-5.274-8.219-9.919-12.386-16.87c-7.564-12.618-14.59-25.566-24.52-36.556C404.8,46.371,390.753,38.5,374.678,36.515
			c-15.379-1.899-31.456,2.002-43.939,11.278c-11.984,8.905-20.737,20.866-28.39,33.553c-4.108,6.81-7.93,13.796-12.294,20.449
			c-2.25,3.43-3.116,4.782-5.537,7.394c-0.942,1.016-1.944,1.956-2.968,2.886c-1.428,1.298,1.485-0.902-0.098,0.064
			c-0.754,0.46-1.512,0.906-2.273,1.353c2.147-1.26-0.861,0.194-1.876,0.48c2.138-0.602,0.196-0.008-0.962-0.009
			c-0.725,0-1.468-0.029-2.186-0.111c0.203,0.023,2.07,0.41,0.728-0.005c-0.658-0.204-1.326-0.378-1.982-0.594
			c-1.197-0.394,1.464,1.071-0.31-0.269c-0.552-0.417-1.222-0.756-1.799-1.153c1.804,1.241,0.27,0.215-0.081-0.139
			c-1.137-1.144-2.304-2.231-3.37-3.446c-1.847-2.105-3.471-4.543-5.543-7.785c-15.915-24.909-29.645-55.585-61.49-62.831
			c-15.925-3.624-33.201-1.393-47.206,7.21c-12.717,7.812-22.109,19.724-29.978,32.187c-3.979,6.303-7.581,12.832-11.457,19.197
			c-4.014,6.592-6.645,11.424-12.377,16.132c1.766-1.451-1.257,0.643-1.942,1.045c2.13-1.249-0.949,0.218-1.876,0.48
			c2.132-0.604,0.204-0.008-0.957-0.009c-1.138,0-0.816-0.03-1.652-0.07c-1.372-0.066,1.784,0.705-0.318-0.168
			c-0.627-0.261-1.326-0.39-1.962-0.646c2.387,0.962,0.581,0.212,0.176-0.095c-0.554-0.419-1.229-0.761-1.799-1.153
			c0.496,0.341,1.557,1.508-0.081-0.139c-2.18-2.191-4.518-4.75-5.558-6.227c-8.58-12.181-14.861-25.821-23.775-37.787
			c-9.425-12.653-20.752-23.243-35.885-28.551C16.154,36.401,7.919,35.536,0,35.955c-6.748,0.357-12.5,5.438-12.5,12.5
			c0,10.059,0,20.119,0,30.178c0,6.109,5.765,13.38,12.5,12.5c1.608-0.21,3.123-0.252,4.726-0.281
			c2.385-0.043,0.394,0.121-0.153-0.035c0.656,0.187,1.339,0.369,2.002,0.542c2.208,0.575,0.331,0.211-0.125-0.058
			c0.592,0.349,1.218,0.726,1.827,1.054c1.892,1.019,0.593,0.389,0.114-0.005c0.896,0.738,1.745,1.549,2.557,2.377
			c5.112,5.214,9.166,12.594,13.421,19.862c7.334,12.53,14.773,25.406,25.308,35.58c25.492,24.618,64.836,24.394,90.113-0.417
			c10.75-10.551,18.223-23.822,25.808-36.678c2.243-3.802,4.512-7.595,6.977-11.259c0.546-0.812,1.099-1.622,1.669-2.419
			c1.511-2.114,0.898-1.256,0.532-0.783c1.271-1.641,2.68-3.209,4.18-4.643c0.553-0.529,1.122-1.051,1.713-1.536
			c-0.483,0.396-1.774,1.02,0.115,0.008c0.609-0.326,1.235-0.705,1.827-1.053c-0.459,0.27-2.329,0.631-0.125,0.06
			c0.663-0.171,1.346-0.355,2.002-0.54c-0.545,0.154-2.543-0.002-0.154,0.036c0.72,0.012,4.009,0.292,2.686,0.025
			c-1.974-0.398,3.527,1.48,1.808,0.628c-1.797-0.89,3.166,2.191,1.782,1.148c-0.639-0.481,2.06,1.962,2.587,2.516
			c0.527,0.553,3.074,3.618,2.613,3.005c5.212,6.944,9.344,14.691,13.741,22.157c7.592,12.89,16.06,25.69,27.975,34.983
			c13.178,10.278,29.546,15.078,46.211,13.053c16.95-2.059,31.608-10.793,42.625-23.722c10.335-12.129,17.445-26.197,25.925-39.573
			c1.965-3.1,3.942-6.09,5.562-7.964c1.071-1.238,2.187-2.396,3.362-3.534c0.243-0.235,2.103-1.741,0.898-0.837
			c-1.229,0.922,1.185-0.678,1.41-0.848c1.594-1.202,0.53-0.375-0.176-0.092c0.636-0.255,1.332-0.383,1.962-0.645
			c1.85-0.77,0.545-0.212-0.224-0.125c0.718-0.082,1.46-0.11,2.185-0.11c1.16,0,3.096,0.6,0.963-0.006
			c0.656,0.187,1.339,0.369,2.002,0.542c2.448,0.637-1.253-1.107,0.795,0.444c0.554,0.419,1.23,0.762,1.799,1.153
			c-0.496-0.341-1.557-1.508,0.081,0.139c1.138,1.144,2.304,2.231,3.37,3.447c1.304,1.487,1.375,1.639,2.189,2.78
			c1.475,2.07,2.858,4.204,4.208,6.357c4.218,6.722,8.016,13.696,12.187,20.446c8.071,13.06,17.69,25.648,30.949,33.805
			c14.463,8.898,32.855,11.202,49.191,6.731c16.112-4.409,28.457-15.482,38.328-28.501c9.557-12.605,15.901-27.3,25.4-39.912
			c-0.71,0.943,1.908-2.245,2.197-2.557c1.065-1.149,2.186-2.264,3.398-3.259c-1.859,1.526,1.406-0.73,1.942-1.045
			c-2.657,1.56,2.752-0.72,1.259-0.421c-1.509,0.302,1.527-0.032,2.132-0.037c0.441-0.004,2.658,0.37,1.016,0.038
			c-1.646-0.332,0.515,0.205,0.889,0.334c2.742,0.95-0.744-0.729,1.743,0.868c0.287,0.184,2.127,1.456,0.956,0.574
			c-1.23-0.926,1.105,1.026,1.323,1.235c2.661,2.549,3.902,4.254,5.537,6.624c2.79,4.043,5.312,8.269,7.802,12.5
			c3.743,6.359,7.371,12.791,11.488,18.921c8.578,12.776,19.192,24.852,33.493,31.266c8.306,3.725,16.953,5.544,26.068,5.672
			c6.76,0.095,12.497-5.804,12.5-12.5c0.005-10,0.01-20,0.016-30c0.004-6.885-5.733-12.327-12.5-12.5
			c-0.731,0-1.459-0.037-2.186-0.111c1.57,0.209,1.644,0.166,0.223-0.127c-0.666-0.18-1.319-0.396-1.962-0.646
			c1.401,0.58,1.46,0.549,0.176-0.095c-0.617-0.357-1.217-0.741-1.799-1.153c1.068,0.853,1.041,0.807-0.081-0.139
			c-1.137-1.145-2.303-2.23-3.37-3.446c-1.923-2.193-3.436-4.494-5.542-7.785C622.959,96.753,620.63,92.76,618.303,88.77
			c-8.102-13.891-29.717-1.322-21.587,12.618c9.877,16.935,21.185,37.197,43.272,37.76c-4.167-4.167-8.333-8.333-12.5-12.5
			c-0.005,10-0.01,20-0.016,30c4.167-4.167,8.333-8.333,12.5-12.5c-7.108-0.1-12.822-1.496-18.628-4.871
			c-1.465-0.852-2.891-1.778-4.265-2.77c-0.2-0.145-1.82-1.464-0.477-0.365c-0.652-0.533-1.291-1.088-1.918-1.649
			c-2.84-2.541-5.406-5.343-7.858-8.254c-0.145-0.172-1.481-1.821-0.413-0.456c-0.52-0.666-1.02-1.354-1.517-2.037
			c-0.994-1.365-1.958-2.752-2.899-4.154c-1.972-2.937-3.835-5.944-5.653-8.978c-4.244-7.082-8.196-14.352-12.801-21.212
			c-8.707-12.97-20.747-24.999-37.691-23.054c-18.05,2.072-28.231,17.619-36.826,32.001c-7.648,12.797-13.875,24.873-23.711,34.354
			c-8.667,8.355-21.234,13.153-33.319,10.949c-7.251-1.322-11.612-3.187-17.76-7.989c1.379,1.077-0.251-0.275-0.424-0.428
			c-0.791-0.699-1.578-1.397-2.344-2.123c-1.226-1.163-2.406-2.37-3.549-3.615c-2.68-2.918-4.064-4.734-5.587-6.872
			c-9.447-13.257-16.115-28.3-26.306-41.05c-9.358-11.708-24.353-19.323-39.331-13.792c-16.683,6.161-25.461,23.556-33.921,38.003
			c-3.455,5.899-7.005,11.728-10.97,17.301c-1.393,1.959-0.376,0.651-1.904,2.509c-1.075,1.308-2.173,2.593-3.32,3.839
			c-1.144,1.243-2.324,2.45-3.551,3.611c-0.613,0.58-1.249,1.133-1.869,1.704c-0.473,0.42-0.954,0.83-1.443,1.231
			c0.713-0.514,0.723-0.518,0.033-0.013c-11.156,8.345-23.631,10.161-36.806,5.679c-4.738-1.612-10.54-5.822-14.663-9.95
			c-5.425-5.431-7.572-8.573-11.661-14.921c-8.666-13.458-15.305-29.261-27.011-40.471c-11.276-10.799-28.394-14.051-41.89-5.149
			c-13.982,9.222-21.484,25.864-29.867,39.762c-1.72,2.852-3.485,5.679-5.345,8.442c-2.526,3.753-3.211,4.743-5.653,7.609
			c-2.19,2.57-4.528,5.022-7.047,7.272c-0.628,0.561-1.267,1.115-1.919,1.647c1.346-1.098-0.278,0.217-0.478,0.362
			c-1.719,1.241-3.52,2.377-5.381,3.394c-3.316,1.813-3.862,2.019-7.985,3.09c-0.888,0.231-1.785,0.427-2.683,0.612
			c-0.087,0.018-2.358,0.4-0.881,0.201c-1.966,0.265-3.988,0.324-5.97,0.324c-4.073-0.001-5.533-0.166-8.877-0.981
			c-4.356-1.062-5.297-1.423-8.653-3.26c-1.491-0.816-2.939-1.711-4.342-2.671c-0.692-0.474-1.395-0.963-2.058-1.48
			c1.379,1.077-0.251-0.275-0.424-0.428c-2.855-2.524-5.524-5.211-7.993-8.115c-0.232-0.273-3.082-3.897-1.993-2.444
			c-1.013-1.353-1.989-2.735-2.943-4.13c-2.12-3.098-4.111-6.282-6.047-9.498c-8.37-13.907-15.861-30.563-29.84-39.795
			C15.135,66.971,7.359,65.172,0,66.133c4.167,4.167,8.333,8.333,12.5,12.5c0-10.059,0-20.119,0-30.178
			c-4.167,4.167-8.333,8.333-12.5,12.5c1.726-0.091,3.438-0.154,5.164-0.109c0.993,0.025,1.99,0.081,2.98,0.164
			c0.086,0.007,2.438,0.328,0.957,0.091c1.588,0.255,3.166,0.621,4.716,1.046c0.865,0.237,1.715,0.511,2.569,0.783
			c0.278,0.089,2.853,1.07,1.3,0.412c6.887,2.914,10.168,5.769,14.882,10.654c4.925,5.105,6.853,7.929,10.774,14.017
			c3.91,6.071,7.422,12.382,11.119,18.582c7.587,12.723,16.891,27.848,32.453,31.39c15.516,3.532,28.569-4.513,37.756-16.458
			c9.215-11.981,15.567-25.818,24.215-38.184c2.083-2.978,2.289-3.335,5.053-6.484c2.233-2.544,4.63-4.908,7.169-7.146
			c0.174-0.153,1.804-1.505,0.425-0.425c0.661-0.518,1.367-1.006,2.059-1.478c1.227-0.838,2.49-1.623,3.785-2.352
			c0.944-0.532,3.648-1.87,3.736-1.906c-1.02,0.421,1.002-0.343,0.954-0.326c1.272-0.436,2.551-0.834,3.852-1.172
			c5.11-1.327,12.236-1.494,17.07-0.461c6.319,1.35,11.413,3.763,16.123,7.524c1.12,0.894,4.415,4.023,6.16,5.893
			c1.154,1.237,2.267,2.514,3.345,3.818c0.404,0.489,0.805,0.983,1.197,1.483c0.725,0.925-0.424-0.605,0.734,1.01
			c3.877,5.407,7.358,11.06,10.721,16.797c7.601,12.967,15.395,29.184,29.169,36.706c13.512,7.379,29.186,4.181,40.078-6.234
			c11.255-10.762,17.819-25.85,26.028-38.852c6.74-10.675,13.695-19.694,24.93-25.389c9.394-4.762,23.922-4.251,33.337,0.904
			c5.968,3.268,9.065,6.113,13.989,11.733c3.742,4.272,6.542,8.466,10.201,14.389c7.904,12.793,14.481,27.907,25.863,38.089
			c11.181,10.002,27.468,13.023,40.591,4.656c13.406-8.547,20.905-24.192,28.747-37.437c3.289-5.555,6.684-11.075,10.567-16.239
			c-0.834,1.11,1.459-1.807,1.997-2.438c1.096-1.287,2.229-2.544,3.404-3.76c1.026-1.062,2.084-2.093,3.176-3.087
			c0.624-0.568,1.26-1.12,1.902-1.666c0.899-0.765-0.663,0.4,0.962-0.769c10.607-7.63,22.614-9.694,35.033-5.727
			c10.195,3.257,19.133,12.749,25.502,22.139c3.57,5.264,6.778,10.76,9.977,16.254C604.808,115.286,626.422,102.715,618.303,88.77z"
			/>
	</g>
	<g style="display:inline;">
		<path d="M607.516,238.118c-12.049-20.7-27.044-46.461-58.39-46.477c-0.012,0-0.018,0-0.029,0
			c-31.324,0-46.346,25.738-58.411,46.417c-11.407,19.552-19.08,31.536-32.501,31.536c-0.004,0-0.009,0-0.012,0
			c-13.428-0.007-21.091-12-32.481-31.569c-12.049-20.7-27.045-46.461-58.394-46.477c-0.012,0-0.018,0-0.029,0
			c-31.323,0-46.344,25.738-58.41,46.417c-11.408,19.552-19.08,31.536-32.5,31.536c-0.003,0-0.009,0-0.012,0
			c-13.428-0.007-21.091-12-32.482-31.569c-12.049-20.7-27.045-46.46-58.394-46.477c-0.012,0-0.018,0-0.03,0
			c-31.325,0-46.345,25.737-58.411,46.417c-11.408,19.552-19.081,31.536-32.502,31.536c-0.003,0-0.008,0-0.012,0
			c-13.427-0.007-21.09-12-32.481-31.569c-12.049-20.7-27.045-46.461-58.394-46.477c-0.011,0-0.017,0-0.029,0
			c-1.23,0-2.426,0.053-3.607,0.131v30.178c1.158-0.205,2.359-0.309,3.609-0.309c0.003,0,0.008,0,0.011,0
			c13.428,0.007,21.091,12.001,32.482,31.569c12.049,20.7,27.045,46.461,58.394,46.477c0.011,0,0.017,0,0.029,0
			c31.325-0.003,46.345-25.738,58.411-46.417c11.408-19.552,19.081-31.536,32.502-31.536c0.003,0,0.009,0,0.012,0
			c13.428,0.007,21.091,12,32.482,31.569c12.049,20.699,27.045,46.461,58.394,46.477c0.012,0,0.018,0,0.03,0
			c31.324-0.003,46.344-25.738,58.41-46.417c11.407-19.552,19.08-31.536,32.5-31.536c0.003,0,0.008,0,0.011,0
			c13.428,0.007,21.091,12.001,32.482,31.569c12.049,20.7,27.045,46.461,58.393,46.477c0.012,0,0.019,0,0.029,0
			c31.325-0.002,46.346-25.737,58.411-46.417c11.408-19.552,19.08-31.536,32.502-31.536c0.003,0,0.008,0,0.011,0
			c13.425,0.007,21.088,12,32.478,31.569c12.049,20.7,27.044,46.461,58.391,46.478l0.016-30
			C626.568,269.68,618.906,257.687,607.516,238.118z"/>
		<path d="M618.309,231.809c-6.988-12.002-14.3-24.245-24.366-33.967c-11.802-11.398-26.803-18.217-43.288-18.68
			c-16.273-0.457-31.329,5.597-43.567,16.097c-10.644,9.131-18.354,21.427-25.393,33.406c-4.181,7.115-8.146,14.509-13.147,21.097
			c0.449-0.592-1.587,1.899-2.197,2.557c-1.065,1.149-2.186,2.264-3.398,3.259c1.754-1.44-0.889,0.387-1.481,0.794
			c-1.49,1.025,1.853-0.541,0.151,0.016c-0.825,0.27-1.654,0.48-2.487,0.715c2.511-0.706-0.065-0.008-0.962-0.009
			c-0.725,0-1.468-0.029-2.186-0.111c0.771,0.089,2.068,0.645,0.223-0.127c-0.629-0.263-1.326-0.39-1.962-0.646
			c0.197,0.079,1.819,0.887,0.636,0.156c-0.6-0.371-1.211-0.734-1.813-1.104c-1.056-0.647,1.05,1.149-0.528-0.44
			c-5.237-5.274-8.219-9.919-12.386-16.87c-7.564-12.618-14.59-25.566-24.52-36.556c-10.831-11.986-24.878-19.857-40.952-21.842
			c-15.379-1.899-31.456,2.002-43.939,11.278c-11.984,8.905-20.737,20.866-28.39,33.553c-4.108,6.81-7.93,13.796-12.294,20.449
			c-2.25,3.43-3.116,4.782-5.537,7.394c-0.942,1.016-1.944,1.956-2.968,2.886c-1.428,1.298,1.485-0.902-0.098,0.064
			c-0.754,0.46-1.512,0.906-2.273,1.353c2.147-1.26-0.861,0.194-1.876,0.48c2.138-0.602,0.196-0.008-0.962-0.009
			c-0.725,0-1.468-0.029-2.186-0.111c0.203,0.023,2.07,0.41,0.728-0.005c-0.658-0.204-1.326-0.378-1.982-0.594
			c-1.197-0.394,1.464,1.071-0.31-0.269c-0.552-0.417-1.222-0.756-1.799-1.153c1.804,1.241,0.27,0.215-0.081-0.139
			c-1.137-1.144-2.304-2.231-3.37-3.446c-1.847-2.105-3.471-4.543-5.543-7.785c-15.915-24.909-29.645-55.585-61.49-62.831
			c-15.925-3.624-33.201-1.393-47.206,7.21c-12.717,7.812-22.109,19.724-29.978,32.187c-3.979,6.303-7.581,12.832-11.457,19.197
			c-4.014,6.592-6.645,11.424-12.377,16.132c1.766-1.451-1.257,0.643-1.942,1.045c2.13-1.249-0.949,0.218-1.876,0.48
			c2.132-0.604,0.204-0.008-0.957-0.009c-1.138,0-0.816-0.03-1.652-0.07c-1.372-0.066,1.784,0.705-0.318-0.168
			c-0.627-0.261-1.326-0.39-1.962-0.646c2.387,0.962,0.581,0.212,0.176-0.095c-0.554-0.419-1.229-0.761-1.799-1.153
			c0.496,0.341,1.557,1.508-0.081-0.139c-2.18-2.191-4.518-4.75-5.558-6.227c-8.58-12.181-14.861-25.821-23.775-37.787
			c-9.425-12.653-20.752-23.243-35.885-28.551c-7.509-2.633-15.744-3.499-23.663-3.08c-6.748,0.357-12.5,5.438-12.5,12.5
			c0,10.059,0,20.119,0,30.178c0,6.109,5.765,13.38,12.5,12.5c1.608-0.21,3.123-0.252,4.726-0.281
			c2.385-0.043,0.394,0.121-0.153-0.035c0.656,0.187,1.339,0.369,2.002,0.542c2.208,0.575,0.331,0.211-0.125-0.058
			c0.592,0.349,1.218,0.726,1.827,1.054c1.892,1.019,0.593,0.389,0.114-0.005c0.896,0.738,1.745,1.549,2.557,2.377
			c5.112,5.214,9.166,12.594,13.421,19.862c7.334,12.53,14.773,25.406,25.308,35.58c25.492,24.618,64.836,24.394,90.113-0.417
			c10.75-10.551,18.223-23.822,25.808-36.678c2.243-3.802,4.512-7.595,6.977-11.259c0.546-0.812,1.099-1.622,1.669-2.419
			c1.511-2.114,0.898-1.256,0.532-0.783c1.271-1.641,2.68-3.209,4.18-4.643c0.553-0.529,1.122-1.051,1.713-1.536
			c-0.483,0.396-1.774,1.02,0.115,0.008c0.609-0.326,1.235-0.705,1.827-1.053c-0.459,0.27-2.329,0.631-0.125,0.06
			c0.663-0.171,1.346-0.355,2.002-0.54c-0.545,0.154-2.543-0.002-0.154,0.036c0.72,0.012,4.009,0.292,2.686,0.025
			c-1.974-0.398,3.527,1.48,1.808,0.628c-1.797-0.89,3.166,2.191,1.782,1.148c-0.639-0.481,2.06,1.962,2.587,2.516
			c0.527,0.553,3.074,3.618,2.613,3.005c5.212,6.944,9.344,14.691,13.741,22.157c7.592,12.89,16.06,25.69,27.975,34.983
			c13.178,10.278,29.546,15.078,46.211,13.053c16.95-2.059,31.608-10.793,42.625-23.722c10.335-12.129,17.445-26.197,25.925-39.573
			c1.965-3.1,3.942-6.09,5.562-7.964c1.071-1.238,2.187-2.396,3.362-3.534c0.243-0.235,2.103-1.741,0.898-0.837
			c-1.229,0.922,1.185-0.678,1.41-0.848c1.594-1.202,0.53-0.375-0.176-0.092c0.636-0.255,1.332-0.383,1.962-0.645
			c1.85-0.771,0.545-0.212-0.224-0.125c0.718-0.082,1.46-0.11,2.185-0.11c1.16,0,3.096,0.6,0.963-0.006
			c0.656,0.187,1.339,0.369,2.002,0.542c2.448,0.637-1.253-1.107,0.795,0.444c0.554,0.419,1.23,0.762,1.799,1.153
			c-0.496-0.341-1.557-1.508,0.081,0.139c1.138,1.144,2.304,2.231,3.37,3.447c1.304,1.487,1.375,1.639,2.189,2.78
			c1.475,2.07,2.858,4.204,4.208,6.357c4.218,6.722,8.016,13.696,12.187,20.446c8.071,13.06,17.69,25.648,30.949,33.805
			c14.463,8.898,32.855,11.202,49.191,6.731c16.112-4.409,28.457-15.482,38.328-28.501c9.557-12.605,15.901-27.3,25.4-39.912
			c-0.71,0.943,1.908-2.245,2.197-2.557c1.065-1.149,2.186-2.264,3.398-3.259c-1.859,1.526,1.406-0.73,1.942-1.045
			c-2.657,1.56,2.752-0.72,1.259-0.421c-1.509,0.302,1.527-0.032,2.132-0.037c0.441-0.004,2.658,0.37,1.016,0.038
			c-1.646-0.332,0.515,0.205,0.889,0.334c2.742,0.95-0.744-0.729,1.743,0.868c0.287,0.184,2.127,1.456,0.956,0.574
			c-1.23-0.926,1.105,1.026,1.323,1.235c2.661,2.549,3.902,4.254,5.537,6.624c2.79,4.043,5.312,8.269,7.802,12.5
			c3.743,6.359,7.371,12.791,11.488,18.921c8.578,12.776,19.192,24.852,33.493,31.266c8.306,3.725,16.953,5.544,26.068,5.672
			c6.76,0.095,12.497-5.804,12.5-12.5c0.005-10,0.01-20,0.016-30c0.004-6.885-5.733-12.327-12.5-12.5
			c-0.731,0-1.459-0.037-2.186-0.111c1.57,0.209,1.644,0.166,0.223-0.127c-0.666-0.18-1.319-0.396-1.962-0.646
			c1.401,0.58,1.46,0.549,0.176-0.095c-0.617-0.357-1.217-0.741-1.799-1.153c1.068,0.853,1.041,0.807-0.081-0.139
			c-1.137-1.145-2.303-2.23-3.37-3.446c-1.923-2.193-3.436-4.494-5.542-7.785C622.965,239.792,620.636,235.799,618.309,231.809
			c-8.102-13.891-29.717-1.322-21.587,12.618c9.877,16.935,21.185,37.197,43.272,37.76c-4.167-4.167-8.333-8.333-12.5-12.5
			c-0.005,10-0.01,20-0.016,30c4.167-4.167,8.333-8.333,12.5-12.5c-7.108-0.1-12.822-1.496-18.628-4.871
			c-1.465-0.852-2.891-1.778-4.265-2.77c-0.2-0.145-1.82-1.464-0.477-0.365c-0.652-0.533-1.291-1.088-1.918-1.649
			c-2.84-2.541-5.406-5.343-7.858-8.254c-0.145-0.172-1.481-1.821-0.413-0.456c-0.52-0.666-1.02-1.354-1.517-2.036
			c-0.994-1.365-1.958-2.752-2.899-4.154c-1.972-2.937-3.835-5.944-5.653-8.978c-4.244-7.082-8.196-14.352-12.801-21.212
			c-8.707-12.97-20.747-24.999-37.691-23.054c-18.05,2.072-28.231,17.619-36.826,32.001c-7.648,12.797-13.875,24.873-23.711,34.354
			c-8.667,8.355-21.234,13.153-33.319,10.949c-7.251-1.322-11.612-3.187-17.76-7.989c1.379,1.077-0.251-0.275-0.424-0.428
			c-0.791-0.699-1.578-1.397-2.344-2.123c-1.226-1.163-2.406-2.37-3.549-3.615c-2.68-2.918-4.064-4.734-5.587-6.872
			c-9.447-13.257-16.115-28.3-26.306-41.05c-9.358-11.708-24.353-19.323-39.331-13.792c-16.683,6.161-25.461,23.556-33.921,38.003
			c-3.455,5.899-7.005,11.728-10.97,17.301c-1.393,1.959-0.376,0.651-1.904,2.509c-1.075,1.308-2.173,2.592-3.32,3.839
			c-1.144,1.243-2.324,2.45-3.551,3.611c-0.613,0.58-1.249,1.133-1.869,1.704c-0.473,0.42-0.954,0.83-1.443,1.231
			c0.713-0.514,0.723-0.518,0.033-0.013c-11.156,8.345-23.631,10.161-36.806,5.679c-4.738-1.612-10.54-5.822-14.663-9.95
			c-5.425-5.431-7.572-8.573-11.661-14.921c-8.666-13.458-15.305-29.261-27.011-40.471c-11.276-10.799-28.394-14.051-41.89-5.149
			c-13.982,9.222-21.484,25.864-29.867,39.762c-1.72,2.852-3.485,5.679-5.345,8.442c-2.526,3.753-3.211,4.743-5.653,7.609
			c-2.19,2.57-4.528,5.022-7.047,7.272c-0.628,0.561-1.267,1.115-1.919,1.647c1.346-1.098-0.278,0.217-0.478,0.362
			c-1.719,1.241-3.52,2.377-5.381,3.394c-3.316,1.813-3.862,2.019-7.985,3.09c-0.888,0.231-1.785,0.427-2.683,0.612
			c-0.087,0.018-2.358,0.4-0.881,0.201c-1.966,0.265-3.988,0.324-5.97,0.324c-4.073-0.001-5.533-0.166-8.877-0.981
			c-4.356-1.062-5.297-1.423-8.653-3.26c-1.491-0.816-2.939-1.711-4.342-2.671c-0.692-0.473-1.395-0.963-2.058-1.48
			c1.379,1.077-0.251-0.275-0.424-0.428c-2.855-2.524-5.524-5.211-7.993-8.115c-0.232-0.273-3.082-3.897-1.993-2.444
			c-1.013-1.353-1.989-2.735-2.943-4.13c-2.12-3.098-4.111-6.282-6.047-9.498c-8.37-13.907-15.861-30.563-29.84-39.795
			c-6.206-4.098-13.982-5.897-21.341-4.936c4.167,4.167,8.333,8.333,12.5,12.5c0-10.059,0-20.119,0-30.178
			c-4.167,4.167-8.333,8.333-12.5,12.5c1.726-0.091,3.438-0.154,5.164-0.109c0.993,0.025,1.99,0.081,2.98,0.164
			c0.086,0.007,2.438,0.328,0.957,0.091c1.588,0.255,3.166,0.621,4.716,1.046c0.865,0.237,1.715,0.511,2.569,0.783
			c0.278,0.089,2.853,1.07,1.3,0.412c6.887,2.914,10.168,5.769,14.882,10.654c4.925,5.105,6.853,7.929,10.774,14.017
			c3.91,6.071,7.422,12.382,11.119,18.582c7.587,12.723,16.891,27.848,32.453,31.39c15.516,3.532,28.569-4.513,37.756-16.458
			c9.215-11.981,15.567-25.818,24.215-38.184c2.083-2.978,2.289-3.335,5.053-6.484c2.233-2.544,4.63-4.908,7.169-7.146
			c0.174-0.153,1.804-1.505,0.425-0.425c0.661-0.518,1.367-1.006,2.059-1.478c1.227-0.838,2.49-1.623,3.785-2.352
			c0.944-0.532,3.648-1.87,3.736-1.906c-1.02,0.421,1.002-0.343,0.954-0.326c1.272-0.436,2.551-0.834,3.852-1.172
			c5.11-1.327,12.236-1.494,17.07-0.461c6.319,1.35,11.413,3.763,16.123,7.524c1.12,0.894,4.415,4.023,6.16,5.893
			c1.154,1.237,2.267,2.514,3.345,3.818c0.404,0.489,0.805,0.983,1.197,1.483c0.725,0.925-0.424-0.605,0.734,1.01
			c3.877,5.407,7.358,11.06,10.721,16.797c7.601,12.967,15.395,29.184,29.169,36.706c13.512,7.379,29.186,4.181,40.078-6.234
			c11.255-10.762,17.819-25.85,26.028-38.852c6.74-10.675,13.695-19.694,24.93-25.389c9.394-4.762,23.922-4.251,33.337,0.904
			c5.968,3.268,9.065,6.113,13.989,11.733c3.742,4.272,6.542,8.466,10.201,14.389c7.904,12.793,14.481,27.907,25.863,38.089
			c11.181,10.002,27.468,13.023,40.591,4.656c13.406-8.547,20.905-24.192,28.747-37.437c3.289-5.555,6.684-11.075,10.567-16.239
			c-0.834,1.11,1.459-1.807,1.997-2.438c1.096-1.287,2.229-2.544,3.404-3.76c1.026-1.062,2.084-2.093,3.176-3.087
			c0.624-0.568,1.26-1.12,1.902-1.666c0.899-0.765-0.663,0.4,0.962-0.769c10.607-7.63,22.614-9.694,35.033-5.727
			c10.195,3.257,19.133,12.749,25.502,22.139c3.57,5.264,6.778,10.76,9.977,16.254C604.814,258.325,626.428,245.754,618.309,231.809
			z"/>
	</g>
	<g style="display:inline;">
		<path d="M607.516,385.298c-12.049-20.7-27.044-46.461-58.39-46.477c-0.012,0-0.018,0-0.029,0
			c-31.324,0-46.346,25.738-58.411,46.417c-11.407,19.552-19.08,31.536-32.501,31.536c-0.004,0-0.009,0-0.012,0
			c-13.428-0.007-21.091-12-32.481-31.569c-12.049-20.7-27.045-46.461-58.394-46.477c-0.012,0-0.018,0-0.029,0
			c-31.323,0-46.344,25.738-58.41,46.417c-11.408,19.552-19.08,31.536-32.5,31.536c-0.003,0-0.009,0-0.012,0
			c-13.428-0.007-21.091-12-32.482-31.569c-12.049-20.7-27.045-46.46-58.394-46.477c-0.012,0-0.018,0-0.03,0
			c-31.325,0-46.345,25.737-58.411,46.417c-11.408,19.552-19.081,31.536-32.502,31.536c-0.003,0-0.008,0-0.012,0
			c-13.427-0.007-21.09-12-32.481-31.569c-12.049-20.7-27.045-46.461-58.394-46.477c-0.011,0-0.017,0-0.029,0
			c-1.23,0-2.426,0.053-3.607,0.131v30.178c1.158-0.205,2.359-0.309,3.609-0.309c0.003,0,0.008,0,0.011,0
			c13.428,0.007,21.091,12.001,32.482,31.569c12.049,20.7,27.045,46.461,58.394,46.477c0.011,0,0.017,0,0.029,0
			c31.325-0.003,46.345-25.738,58.411-46.417c11.408-19.552,19.081-31.536,32.502-31.536c0.003,0,0.009,0,0.012,0
			c13.428,0.007,21.091,12,32.482,31.569c12.049,20.699,27.045,46.461,58.394,46.477c0.012,0,0.018,0,0.03,0
			c31.324-0.003,46.344-25.738,58.41-46.417c11.407-19.552,19.08-31.536,32.5-31.536c0.003,0,0.008,0,0.011,0
			c13.428,0.007,21.091,12.001,32.482,31.569c12.049,20.7,27.045,46.461,58.393,46.477c0.012,0,0.019,0,0.029,0
			c31.325-0.002,46.346-25.737,58.411-46.417c11.408-19.552,19.08-31.536,32.502-31.536c0.003,0,0.008,0,0.011,0
			c13.425,0.007,21.088,12,32.478,31.569c12.049,20.7,27.044,46.461,58.391,46.478l0.016-30
			C626.568,416.861,618.906,404.867,607.516,385.298z"/>
		<path d="M618.309,378.989c-6.988-12.002-14.3-24.245-24.366-33.967c-11.802-11.398-26.803-18.217-43.288-18.68
			c-16.273-0.457-31.329,5.597-43.567,16.097c-10.644,9.131-18.354,21.427-25.393,33.406c-4.181,7.115-8.146,14.509-13.147,21.097
			c0.449-0.592-1.587,1.899-2.197,2.557c-1.065,1.149-2.186,2.264-3.398,3.259c1.754-1.44-0.889,0.387-1.481,0.794
			c-1.49,1.025,1.853-0.541,0.151,0.016c-0.825,0.27-1.654,0.48-2.487,0.715c2.511-0.706-0.065-0.008-0.962-0.009
			c-0.725,0-1.468-0.029-2.186-0.111c0.771,0.089,2.068,0.645,0.223-0.127c-0.629-0.263-1.326-0.39-1.962-0.646
			c0.197,0.079,1.819,0.887,0.636,0.156c-0.6-0.371-1.211-0.734-1.813-1.104c-1.056-0.647,1.05,1.149-0.528-0.44
			c-5.237-5.274-8.219-9.919-12.386-16.87c-7.564-12.618-14.59-25.566-24.52-36.556c-10.831-11.986-24.878-19.857-40.952-21.842
			c-15.379-1.899-31.456,2.002-43.939,11.278c-11.984,8.905-20.737,20.866-28.39,33.553c-4.108,6.81-7.93,13.796-12.294,20.449
			c-2.25,3.43-3.116,4.782-5.537,7.394c-0.942,1.016-1.944,1.956-2.968,2.886c-1.428,1.298,1.485-0.902-0.098,0.064
			c-0.754,0.46-1.512,0.906-2.273,1.353c2.147-1.26-0.861,0.194-1.876,0.48c2.138-0.602,0.196-0.008-0.962-0.009
			c-0.725,0-1.468-0.029-2.186-0.111c0.203,0.023,2.07,0.41,0.728-0.005c-0.658-0.204-1.326-0.378-1.982-0.594
			c-1.197-0.394,1.464,1.071-0.31-0.269c-0.552-0.417-1.222-0.756-1.799-1.153c1.804,1.241,0.27,0.215-0.081-0.139
			c-1.137-1.144-2.304-2.231-3.37-3.446c-1.847-2.105-3.471-4.543-5.543-7.785c-15.915-24.909-29.645-55.585-61.49-62.831
			c-15.925-3.624-33.201-1.393-47.206,7.21c-12.717,7.812-22.109,19.724-29.978,32.187c-3.979,6.303-7.581,12.832-11.457,19.197
			c-4.014,6.592-6.645,11.424-12.377,16.132c1.766-1.451-1.257,0.643-1.942,1.045c2.13-1.249-0.949,0.218-1.876,0.48
			c2.132-0.604,0.204-0.008-0.957-0.009c-1.138,0-0.816-0.03-1.652-0.07c-1.372-0.066,1.784,0.705-0.318-0.168
			c-0.627-0.261-1.326-0.39-1.962-0.646c2.387,0.962,0.581,0.212,0.176-0.095c-0.554-0.419-1.229-0.761-1.799-1.153
			c0.496,0.341,1.557,1.508-0.081-0.139c-2.18-2.191-4.518-4.75-5.558-6.227c-8.58-12.181-14.861-25.821-23.775-37.787
			c-9.425-12.653-20.752-23.243-35.885-28.551c-7.509-2.633-15.744-3.499-23.663-3.08c-6.748,0.357-12.5,5.438-12.5,12.5
			c0,10.059,0,20.119,0,30.178c0,6.109,5.765,13.38,12.5,12.5c1.608-0.21,3.123-0.252,4.726-0.281
			c2.385-0.043,0.394,0.121-0.153-0.035c0.656,0.187,1.339,0.369,2.002,0.542c2.208,0.575,0.331,0.211-0.125-0.058
			c0.592,0.349,1.218,0.726,1.827,1.054c1.892,1.018,0.593,0.389,0.114-0.005c0.896,0.738,1.745,1.549,2.557,2.377
			c5.112,5.214,9.166,12.594,13.421,19.862c7.334,12.53,14.773,25.406,25.308,35.58c25.492,24.618,64.836,24.394,90.113-0.417
			c10.75-10.551,18.223-23.822,25.808-36.678c2.243-3.802,4.512-7.595,6.977-11.259c0.546-0.812,1.099-1.622,1.669-2.419
			c1.511-2.114,0.898-1.256,0.532-0.783c1.271-1.641,2.68-3.209,4.18-4.643c0.553-0.529,1.122-1.051,1.713-1.536
			c-0.483,0.396-1.774,1.02,0.115,0.008c0.609-0.326,1.235-0.705,1.827-1.053c-0.459,0.27-2.329,0.631-0.125,0.06
			c0.663-0.171,1.346-0.355,2.002-0.54c-0.545,0.154-2.543-0.002-0.154,0.036c0.72,0.012,4.009,0.292,2.686,0.025
			c-1.974-0.398,3.527,1.48,1.808,0.628c-1.797-0.89,3.166,2.191,1.782,1.148c-0.639-0.481,2.06,1.962,2.587,2.516
			c0.527,0.553,3.074,3.618,2.613,3.005c5.212,6.944,9.344,14.691,13.741,22.157c7.592,12.89,16.06,25.69,27.975,34.983
			c13.178,10.278,29.546,15.078,46.211,13.053c16.95-2.059,31.608-10.793,42.625-23.722c10.335-12.129,17.445-26.197,25.925-39.574
			c1.965-3.1,3.942-6.09,5.562-7.964c1.071-1.238,2.187-2.396,3.362-3.534c0.243-0.235,2.103-1.741,0.898-0.837
			c-1.229,0.922,1.185-0.678,1.41-0.848c1.594-1.202,0.53-0.375-0.176-0.092c0.636-0.255,1.332-0.383,1.962-0.645
			c1.85-0.771,0.545-0.212-0.224-0.125c0.718-0.082,1.46-0.11,2.185-0.11c1.16,0,3.096,0.6,0.963-0.006
			c0.656,0.187,1.339,0.369,2.002,0.542c2.448,0.637-1.253-1.107,0.795,0.444c0.554,0.419,1.23,0.762,1.799,1.153
			c-0.496-0.341-1.557-1.508,0.081,0.139c1.138,1.144,2.304,2.231,3.37,3.447c1.304,1.487,1.375,1.639,2.189,2.78
			c1.475,2.07,2.858,4.204,4.208,6.357c4.218,6.722,8.016,13.696,12.187,20.446c8.071,13.06,17.69,25.648,30.949,33.805
			c14.463,8.898,32.855,11.202,49.191,6.731c16.112-4.409,28.457-15.482,38.328-28.501c9.557-12.605,15.901-27.3,25.4-39.912
			c-0.71,0.943,1.908-2.245,2.197-2.557c1.065-1.149,2.186-2.264,3.398-3.259c-1.859,1.526,1.406-0.73,1.942-1.045
			c-2.657,1.56,2.752-0.72,1.259-0.421c-1.509,0.302,1.527-0.031,2.132-0.037c0.441-0.004,2.658,0.37,1.016,0.038
			c-1.646-0.332,0.515,0.205,0.889,0.334c2.742,0.95-0.744-0.729,1.743,0.868c0.287,0.184,2.127,1.456,0.956,0.574
			c-1.23-0.926,1.105,1.026,1.323,1.235c2.661,2.549,3.902,4.254,5.537,6.624c2.79,4.043,5.312,8.269,7.802,12.5
			c3.743,6.359,7.371,12.791,11.488,18.921c8.578,12.776,19.192,24.852,33.493,31.266c8.306,3.725,16.953,5.544,26.068,5.672
			c6.76,0.095,12.497-5.804,12.5-12.5c0.005-10,0.01-20,0.016-30c0.004-6.885-5.733-12.327-12.5-12.5
			c-0.731,0-1.459-0.037-2.186-0.111c1.57,0.209,1.644,0.166,0.223-0.127c-0.666-0.18-1.319-0.396-1.962-0.646
			c1.401,0.58,1.46,0.549,0.176-0.095c-0.617-0.357-1.217-0.742-1.799-1.153c1.068,0.853,1.041,0.807-0.081-0.139
			c-1.137-1.145-2.303-2.23-3.37-3.446c-1.923-2.193-3.436-4.494-5.542-7.785C622.965,386.972,620.636,382.979,618.309,378.989
			c-8.102-13.891-29.717-1.322-21.587,12.618c9.877,16.935,21.185,37.197,43.272,37.76c-4.167-4.167-8.333-8.333-12.5-12.5
			c-0.005,10-0.01,20-0.016,30c4.167-4.167,8.333-8.333,12.5-12.5c-7.108-0.1-12.822-1.496-18.628-4.871
			c-1.465-0.852-2.891-1.778-4.265-2.77c-0.2-0.145-1.82-1.464-0.477-0.365c-0.652-0.533-1.291-1.088-1.918-1.649
			c-2.84-2.541-5.406-5.343-7.858-8.254c-0.145-0.172-1.481-1.821-0.413-0.456c-0.52-0.666-1.02-1.354-1.517-2.037
			c-0.994-1.365-1.958-2.752-2.899-4.154c-1.972-2.937-3.835-5.944-5.653-8.978c-4.244-7.082-8.196-14.352-12.801-21.212
			c-8.707-12.97-20.747-24.999-37.691-23.054c-18.05,2.072-28.231,17.619-36.826,32.001c-7.648,12.797-13.875,24.873-23.711,34.354
			c-8.667,8.355-21.234,13.153-33.319,10.949c-7.251-1.322-11.612-3.187-17.76-7.989c1.379,1.077-0.251-0.275-0.424-0.428
			c-0.791-0.699-1.578-1.397-2.344-2.123c-1.226-1.163-2.406-2.37-3.549-3.615c-2.68-2.918-4.064-4.734-5.587-6.872
			c-9.447-13.257-16.115-28.3-26.306-41.05c-9.358-11.708-24.353-19.323-39.331-13.792c-16.683,6.161-25.461,23.556-33.921,38.003
			c-3.455,5.899-7.005,11.728-10.97,17.301c-1.393,1.959-0.376,0.651-1.904,2.509c-1.075,1.308-2.173,2.593-3.32,3.839
			c-1.144,1.243-2.324,2.45-3.551,3.611c-0.613,0.58-1.249,1.133-1.869,1.704c-0.473,0.42-0.954,0.83-1.443,1.231
			c0.713-0.514,0.723-0.518,0.033-0.013c-11.156,8.345-23.631,10.161-36.806,5.679c-4.738-1.612-10.54-5.822-14.663-9.95
			c-5.425-5.431-7.572-8.573-11.661-14.921c-8.666-13.458-15.305-29.261-27.011-40.471c-11.276-10.799-28.394-14.051-41.89-5.149
			c-13.982,9.222-21.484,25.864-29.867,39.762c-1.72,2.852-3.485,5.679-5.345,8.442c-2.526,3.753-3.211,4.743-5.653,7.609
			c-2.19,2.57-4.528,5.022-7.047,7.272c-0.628,0.561-1.267,1.115-1.919,1.647c1.346-1.098-0.278,0.217-0.478,0.362
			c-1.719,1.241-3.52,2.377-5.381,3.394c-3.316,1.813-3.862,2.019-7.985,3.09c-0.888,0.231-1.785,0.427-2.683,0.612
			c-0.087,0.018-2.358,0.4-0.881,0.201c-1.966,0.265-3.988,0.324-5.97,0.324c-4.073-0.001-5.533-0.166-8.877-0.981
			c-4.356-1.062-5.297-1.423-8.653-3.26c-1.491-0.816-2.939-1.711-4.342-2.671c-0.692-0.474-1.395-0.963-2.058-1.48
			c1.379,1.077-0.251-0.275-0.424-0.428c-2.855-2.524-5.524-5.211-7.993-8.115c-0.232-0.273-3.082-3.897-1.993-2.444
			c-1.013-1.353-1.989-2.735-2.943-4.13c-2.12-3.098-4.111-6.282-6.047-9.498c-8.37-13.907-15.861-30.563-29.84-39.795
			c-6.206-4.098-13.982-5.897-21.341-4.936c4.167,4.167,8.333,8.333,12.5,12.5c0-10.059,0-20.119,0-30.178
			c-4.167,4.167-8.333,8.333-12.5,12.5c1.726-0.091,3.438-0.154,5.164-0.109c0.993,0.025,1.99,0.081,2.98,0.164
			c0.086,0.007,2.438,0.328,0.957,0.091c1.588,0.255,3.166,0.621,4.716,1.046c0.865,0.237,1.715,0.511,2.569,0.783
			c0.278,0.089,2.853,1.07,1.3,0.412c6.887,2.914,10.168,5.769,14.882,10.654c4.925,5.105,6.853,7.929,10.774,14.017
			c3.91,6.071,7.422,12.382,11.119,18.582c7.587,12.723,16.891,27.848,32.453,31.39c15.516,3.532,28.569-4.513,37.756-16.458
			c9.215-11.981,15.567-25.818,24.215-38.184c2.083-2.978,2.289-3.335,5.053-6.484c2.233-2.544,4.63-4.908,7.169-7.146
			c0.174-0.153,1.804-1.505,0.425-0.425c0.661-0.518,1.367-1.006,2.059-1.478c1.227-0.838,2.49-1.623,3.785-2.352
			c0.944-0.532,3.648-1.87,3.736-1.906c-1.02,0.421,1.002-0.343,0.954-0.326c1.272-0.436,2.551-0.834,3.852-1.172
			c5.11-1.327,12.236-1.494,17.07-0.461c6.319,1.35,11.413,3.763,16.123,7.524c1.12,0.894,4.415,4.023,6.16,5.893
			c1.154,1.237,2.267,2.514,3.345,3.818c0.404,0.489,0.805,0.983,1.197,1.483c0.725,0.925-0.424-0.605,0.734,1.01
			c3.877,5.407,7.358,11.06,10.721,16.797c7.601,12.967,15.395,29.184,29.169,36.706c13.512,7.379,29.186,4.181,40.078-6.234
			c11.255-10.762,17.819-25.85,26.028-38.852c6.74-10.675,13.695-19.694,24.93-25.389c9.394-4.762,23.922-4.251,33.337,0.904
			c5.968,3.268,9.065,6.113,13.989,11.733c3.742,4.272,6.542,8.466,10.201,14.389c7.904,12.793,14.481,27.907,25.863,38.089
			c11.181,10.002,27.468,13.023,40.591,4.656c13.406-8.547,20.905-24.192,28.747-37.437c3.289-5.555,6.684-11.075,10.567-16.239
			c-0.834,1.11,1.459-1.807,1.997-2.438c1.096-1.287,2.229-2.544,3.404-3.76c1.026-1.062,2.084-2.093,3.176-3.087
			c0.624-0.568,1.26-1.12,1.902-1.666c0.899-0.765-0.663,0.4,0.962-0.769c10.607-7.63,22.614-9.694,35.033-5.727
			c10.195,3.257,19.133,12.749,25.502,22.139c3.57,5.264,6.778,10.76,9.977,16.254C604.814,405.505,626.428,392.934,618.309,378.989
			z"/>
	</g>
</g>
</svg>
